Ref_01_analogdata.mot
version=1
nRows=39
nColumns=19
inDegrees=yes
endheader
time	1_ground_force_vx	1_ground_force_vy	1_ground_force_vz	1_ground_force_px	1_ground_force_py	1_ground_force_pz	1_ground_torque_x	1_ground_torque_y	1_ground_torque_z	2_ground_force_vx	2_ground_force_vy	2_ground_force_vz	2_ground_force_px	2_ground_force_py	2_ground_force_pz	2_ground_torque_x	2_ground_torque_y	2_ground_torque_z
1.740000	1.988929	625.844177	2.091146	-0.206691	0.000000	-0.349349	0.000890	0.279929	0.000935	0.000000	0.000000	-0.000000	-0.200000	0.000000	0.302000	0.000000	0.000000	-0.000000
1.741000	0.830813	627.593811	0.941046	-0.206846	0.000000	-0.350456	0.000207	0.156532	0.000235	0.000000	0.000000	-0.000000	-0.200000	0.000000	0.302000	0.000000	0.000000	-0.000000
1.742000	0.652642	623.744629	-0.120585	-0.206243	0.000000	-0.349443	0.000063	0.060684	-0.000012	0.000000	0.000000	-0.000000	-0.200000	0.000000	0.302000	0.000000	0.000000	-0.000000
1.743000	0.830813	629.693298	0.675639	-0.206532	0.000000	-0.349341	-0.000211	-0.159898	-0.000172	0.000000	0.000000	-0.000000	-0.200000	0.000000	0.302000	0.000000	0.000000	-0.000000
1.744000	0.296298	627.243835	0.498700	-0.206033	0.000000	-0.349094	0.000036	0.076557	0.000061	0.000000	0.000000	-0.000000	-0.200000	0.000000	0.302000	0.000000	0.000000	-0.000000
1.745000	1.632586	632.492676	0.764108	-0.206850	0.000000	-0.348613	0.000745	0.288577	0.000349	0.000000	0.000000	-0.000000	-0.200000	0.000000	0.302000	0.000000	0.000000	-0.000000
1.746000	0.830813	617.446045	1.471862	-0.206544	0.000000	-0.350616	0.000332	0.246867	0.000588	0.000000	0.000000	-0.000000	-0.200000	0.000000	0.302000	0.000000	0.000000	-0.000000
1.747000	1.187156	626.194092	0.675639	-0.205635	0.000000	-0.349469	0.000334	0.175975	0.000190	0.000000	0.000000	-0.000000	-0.200000	0.000000	0.302000	0.000000	0.000000	-0.000000
1.748000	0.207213	630.043274	-0.297523	-0.206935	0.000000	-0.349677	-0.000005	-0.016015	0.000008	0.000000	0.000000	-0.000000	-0.200000	0.000000	0.302000	0.000000	0.000000	-0.000000
1.749000	0.741728	625.144348	0.144823	-0.206814	0.000000	-0.349039	0.000053	0.044371	0.000010	0.000000	0.000000	-0.000000	-0.200000	0.000000	0.302000	0.000000	0.000000	-0.000000
1.750000	1.187157	625.494263	-0.297523	-0.206751	0.000000	-0.349378	0.000097	0.050934	-0.000024	0.000000	0.000000	-0.000000	-0.200000	0.000000	0.302000	0.000000	0.000000	-0.000000
1.751000	-0.594560	626.194092	0.941046	-0.207211	0.000000	-0.348664	-0.000205	0.216084	0.000325	0.000000	0.000000	-0.000000	-0.200000	0.000000	0.302000	0.000000	0.000000	-0.000000
1.752000	0.296298	619.545593	0.410231	-0.206167	0.000000	-0.351926	0.000082	0.171267	0.000113	0.000000	0.000000	-0.000000	-0.200000	0.000000	0.302000	0.000000	0.000000	-0.000000
1.753000	0.919899	626.544006	0.941046	-0.206215	0.000000	-0.349662	-0.000285	-0.193998	-0.000291	0.000000	0.000000	-0.000000	-0.200000	0.000000	0.302000	0.000000	0.000000	-0.000000
1.754000	-0.505474	628.993469	-0.474462	-0.206365	0.000000	-0.349396	-0.000125	0.155141	-0.000117	0.000000	0.000000	-0.000000	-0.200000	0.000000	0.302000	0.000000	0.000000	-0.000000
1.755000	0.919899	627.593811	-0.032115	-0.206729	0.000000	-0.348847	0.000298	0.203562	-0.000010	0.000000	0.000000	-0.000000	-0.200000	0.000000	0.302000	0.000000	0.000000	-0.000000
1.756000	1.365328	628.643555	-0.562931	-0.206717	0.000000	-0.348984	0.000538	0.247750	-0.000222	-0.008639	0.000000	-0.085531	-0.193560	0.000000	0.356470	0.000025	0.015693	0.000249
1.757000	0.385384	626.194092	-0.651400	-0.207269	0.000000	-0.349689	0.000158	0.257009	-0.000267	0.000000	0.000000	-0.000000	-0.200000	0.000000	0.302000	0.000000	0.000000	-0.000000
1.758000	0.118127	623.744629	0.056354	-0.205540	0.000000	-0.350473	-0.000008	-0.041400	-0.000004	0.000000	0.000000	-0.000000	-0.200000	0.000000	0.302000	0.000000	0.000000	-0.000000
1.759000	0.741727	621.994995	0.852577	-0.206672	0.000000	-0.349951	0.000182	0.152416	0.000209	0.000000	0.000000	-0.000000	-0.200000	0.000000	0.302000	0.000000	0.000000	-0.000000
1.760000	-0.861817	632.842651	-0.032116	-0.206557	0.000000	-0.348732	0.000096	-0.070160	0.000004	0.000000	0.000000	-0.000000	-0.200000	0.000000	0.302000	0.000000	0.000000	-0.000000
1.761000	3.770645	627.943726	0.675639	-0.206900	0.000000	-0.349182	0.002149	0.357876	0.000385	0.000000	0.000000	-0.000000	-0.200000	0.000000	0.302000	0.000000	0.000000	-0.000000
1.762000	0.385384	623.044800	0.587169	-0.206720	0.000000	-0.349351	0.000142	0.229520	0.000216	0.000000	0.000000	-0.000000	-0.200000	0.000000	0.302000	0.000000	0.000000	-0.000000
1.763000	0.474470	629.693298	0.410231	-0.206475	0.000000	-0.349777	0.000403	0.534262	0.000348	0.000000	0.000000	-0.000000	-0.200000	0.000000	0.302000	0.000000	0.000000	-0.000000
1.764000	0.563556	627.943726	0.321762	-0.205968	0.000000	-0.349186	-0.000153	-0.170679	-0.000087	0.000000	0.000000	-0.000000	-0.200000	0.000000	0.302000	0.000000	0.000000	-0.000000
1.765000	0.652642	630.043274	0.410231	-0.205833	0.000000	-0.349167	0.000117	0.113394	0.000074	0.000000	0.000000	-0.000000	-0.200000	0.000000	0.302000	0.000000	0.000000	-0.000000
1.766000	1.008985	632.492676	-0.562931	-0.206503	0.000000	-0.348179	0.000217	0.135970	-0.000121	0.000000	0.000000	-0.000000	-0.200000	0.000000	0.302000	0.000000	0.000000	-0.000000
1.767000	1.187156	628.293640	3.152777	-0.206548	0.000000	-0.349012	0.000335	0.177273	0.000890	0.000000	0.000000	-0.000000	-0.200000	0.000000	0.302000	0.000000	0.000000	-0.000000
1.768000	0.919899	624.444458	0.852577	-0.206646	0.000000	-0.351078	0.000239	0.162375	0.000222	0.000000	0.000000	-0.000000	-0.200000	0.000000	0.302000	0.000000	0.000000	-0.000000
1.769000	0.118127	628.643555	0.321761	-0.206311	0.000000	-0.348912	0.000009	0.050089	0.000026	0.000000	0.000000	-0.000000	-0.200000	0.000000	0.302000	0.000000	0.000000	-0.000000
1.770000	0.385384	629.693298	0.056354	-0.206358	0.000000	-0.348757	0.000028	0.046095	0.000004	0.000000	0.000000	-0.000000	-0.200000	0.000000	0.302000	0.000000	0.000000	-0.000000
1.771000	-0.416388	627.593811	-0.032116	-0.205913	0.000000	-0.349432	-0.000017	0.025948	-0.000001	0.000000	0.000000	-0.000000	-0.200000	0.000000	0.302000	0.000000	0.000000	-0.000000
1.772000	0.830813	632.492676	0.852577	-0.206792	0.000000	-0.348033	0.000204	0.155170	0.000209	0.000000	0.000000	-0.000000	-0.200000	0.000000	0.302000	0.000000	0.000000	-0.000000
1.773000	0.385384	618.845703	1.648800	-0.206529	0.000000	-0.350131	0.000092	0.148287	0.000395	0.000000	0.000000	-0.000000	-0.200000	0.000000	0.302000	0.000000	0.000000	-0.000000
1.774000	0.919899	626.194092	0.941046	-0.205636	0.000000	-0.350202	0.000403	0.274002	0.000412	0.000000	0.000000	-0.000000	-0.200000	0.000000	0.302000	0.000000	0.000000	-0.000000
1.775000	-0.505474	628.643555	-0.385992	-0.207008	0.000000	-0.349350	-0.000034	0.042780	-0.000026	0.000000	0.000000	-0.000000	-0.200000	0.000000	0.302000	0.000000	0.000000	-0.000000
1.776000	0.563556	628.643555	0.056354	-0.206543	0.000000	-0.348620	0.000166	0.185442	0.000017	0.000000	0.000000	-0.000000	-0.200000	0.000000	0.302000	0.000000	0.000000	-0.000000
1.777000	-0.505474	627.943726	0.056354	-0.206783	0.000000	-0.349259	0.000073	-0.091010	-0.000008	0.000000	0.000000	-0.000000	-0.200000	0.000000	0.302000	0.000000	0.000000	-0.000000
1.778000	-0.327302	626.544006	1.029515	-0.207207	0.000000	-0.347977	-0.000119	0.228680	0.000376	0.000000	0.000000	-0.000000	-0.200000	0.000000	0.302000	0.000000	0.000000	-0.000000
